# xmcd
#
# Track frame offsets:
#	150
#	18283
#	37807
#	62145
#	83366
#	107799
#	131371
#	156842
#	177153
#	211271
#	233487
#	261993
#
# Disc length: 3795 seconds
# Revision: 0
# Processed by: cddbd v1.5.2PL0 Copyright (c) Steve Scherf et al.
# Submitted via: dBpowerAMP V12.0
#
DISCID=8c0ed10c
DTITLE=Dave Fields - Detonation
DYEAR=2012
DGENRE=Blues
TTITLE0=Addicted To Your Fire
TTITLE1=In the Night
TTITLE2=Doin' Hard Time
TTITLE3=Prophet In Disguise
TTITLE4=Bad Hair Day
TTITLE5=The Altar
TTITLE6=Better Be Good
TTITLE7=Same Old Me
TTITLE8=Pocket Full of Dust
TTITLE9=Dr. Ron
TTITLE10=Lydia
TTITLE11=You Will Remember Me
EXTD=
EXTT0=
EXTT1=
EXTT2=
EXTT3=
EXTT4=
EXTT5=
EXTT6=
EXTT7=
EXTT8=
EXTT9=
EXTT10=
EXTT11=
PLAYORDER=
